<?xml version="1.0" standalone="no"?>
<!DOCTYPE svg PUBLIC "-//W3C//DTD SVG 20010904//EN"
 "http://www.w3.org/TR/2001/REC-SVG-20010904/DTD/svg10.dtd">
<svg version="1.0" xmlns="http://www.w3.org/2000/svg"
 width="2400.000000pt" height="2400.000000pt" viewBox="0 0 2400.000000 2400.000000"
 preserveAspectRatio="xMidYMid meet">
<metadata>
Created by potrace 1.11, written by Peter Selinger 2001-2013
</metadata>
<g transform="translate(0.000000,2400.000000) scale(0.100000,-0.100000)"
fill="#000000" stroke="none">
<path d="M11645 23223 c-1500 -59 -2900 -419 -4212 -1085 -2379 -1206 -4235
-3293 -5225 -5873 -409 -1065 -654 -2197 -739 -3415 -17 -253 -23 -966 -10
-1245 63 -1342 330 -2592 810 -3790 1101 -2753 3214 -4932 5848 -6030 2293
-957 4873 -1030 7216 -203 1959 690 3684 1977 4969 3708 715 963 1294 2089
1668 3245 262 813 442 1698 515 2545 55 647 59 1337 9 1965 -241 3062 -1674
5873 -3969 7789 -1556 1300 -3433 2110 -5395 2330 -477 54 -1047 77 -1485 59z
m841 -583 c374 -21 769 -65 1082 -118 l155 -27 68 -335 c78 -392 127 -607 210
-930 434 -1688 1095 -3185 1963 -4445 103 -150 338 -466 450 -605 42 -52 76
-98 76 -101 0 -6 -455 -614 -547 -731 -26 -32 -49 -57 -53 -56 -3 2 -75 79
-160 173 -317 348 -772 796 -1145 1126 -1915 1697 -4315 2961 -7035 3705 -407
112 -976 248 -1317 315 -62 12 -113 25 -113 28 0 13 294 225 521 377 1454 974
3092 1525 4824 1623 209 12 818 12 1021 1z m1834 -275 c1025 -255 2056 -713
2975 -1320 491 -325 941 -683 1395 -1112 l94 -89 -186 -375 c-384 -772 -797
-1477 -1351 -2309 -218 -328 -477 -700 -487 -700 -20 0 -346 441 -539 730
-925 1380 -1599 3060 -1989 4955 -57 277 -55 257 -34 251 9 -3 64 -17 122 -31z
m-8359 -2161 c3344 -655 6241 -2050 8489 -4088 225 -204 672 -647 902 -895
237 -255 263 -287 251 -304 -81 -107 -454 -562 -701 -855 l-154 -183 -68 65
c-171 161 -437 342 -698 474 -527 267 -1104 416 -1892 489 -243 22 -1102 26
-1375 5 -621 -46 -1155 -114 -1785 -228 -1885 -340 -4215 -1062 -6639 -2058
-156 -64 -285 -115 -286 -114 -5 5 15 343 30 533 197 2395 1172 4649 2760
6383 283 309 827 832 866 832 9 0 144 -25 300 -56z m13406 -984 c862 -999
1522 -2131 1971 -3380 266 -740 458 -1546 556 -2340 36 -290 36 -300 24 -300
-18 0 -310 77 -458 121 -246 73 -393 121 -595 194 -1163 421 -2179 1029 -3075
1842 -162 147 -545 531 -665 666 -66 76 -69 80 -55 103 8 13 87 126 174 250
679 967 1306 2007 1739 2887 l122 248 69 -73 c37 -40 125 -138 193 -218z
m-2458 -3614 c145 -160 478 -488 652 -643 1192 -1060 2560 -1778 4163 -2183
171 -44 232 -63 240 -77 16 -27 14 -1022 -2 -1248 -65 -906 -185 -1607 -413
-2401 -209 -731 -531 -1516 -894 -2179 -183 -335 -636 -1051 -671 -1062 -7 -2
-14 19 -18 54 -14 123 -79 534 -126 805 -398 2274 -1091 4257 -2118 6058 -385
677 -849 1358 -1351 1984 -126 157 -181 234 -175 242 5 7 79 104 165 216 86
112 216 283 289 381 72 97 135 177 139 177 3 0 57 -56 120 -124z m-855 -1201
c1900 -2378 3089 -5387 3527 -8927 l22 -176 -64 -78 c-472 -578 -1073 -1160
-1679 -1625 -1172 -898 -2532 -1523 -3947 -1813 -602 -124 -1280 -195 -1851
-196 l-163 0 19 28 c11 15 106 171 212 347 2012 3339 3218 6212 3504 8345 51
379 60 520 61 935 0 401 -6 508 -46 775 -80 535 -248 995 -507 1385 -50 77
-91 143 -90 146 2 4 70 86 151 182 186 220 463 556 598 726 l104 130 19 -22
c10 -12 69 -85 130 -162z m-4294 65 c404 -19 684 -52 1020 -120 690 -140 1198
-378 1638 -767 l43 -38 -212 -240 c-2413 -2732 -5354 -5452 -9008 -8335 -267
-210 -337 -261 -350 -253 -26 16 -230 243 -385 426 -1425 1700 -2282 3799
-2471 6052 -20 239 -35 540 -35 696 l0 126 220 92 c3876 1614 7316 2465 9540
2361z m3059 -1372 c318 -508 466 -1160 448 -1958 -23 -963 -264 -2050 -754
-3400 -616 -1698 -1677 -3801 -2990 -5927 -112 -181 -128 -203 -152 -203 -58
0 -388 32 -576 55 -1485 187 -2888 714 -4165 1568 -364 243 -759 548 -1069
826 -157 140 -341 313 -341 320 0 4 100 85 222 181 3603 2830 6720 5708 9076
8382 125 142 229 258 232 258 3 0 34 -46 69 -102z"/>
</g>
</svg>
